<?xml version="1.0" encoding="utf-8"?>
<!-- Generator: Adobe Illustrator 19.0.0, SVG Export Plug-In . SVG Version: 6.00 Build 0)  -->
<svg version="1.1" id="Layer_1" xmlns="http://www.w3.org/2000/svg" xmlns:xlink="http://www.w3.org/1999/xlink" x="0px" y="0px"
	 viewBox="0 0 612 792" style="enable-background:new 0 0 612 792;" xml:space="preserve">
<metadata><?xpacket begin="﻿" id="W5M0MpCehiHzreSzNTczkc9d"?>
<x:xmpmeta xmlns:x="adobe:ns:meta/" x:xmptk="Adobe XMP Core 5.6-c067 79.157747, 2015/03/30-23:40:42        ">
   <rdf:RDF xmlns:rdf="http://www.w3.org/1999/02/22-rdf-syntax-ns#">
      <rdf:Description rdf:about=""/>
   </rdf:RDF>
</x:xmpmeta>
                                                                                                    
                                                                                                    
                                                                                                    
                                                                                                    
                                                                                                    
                                                                                                    
                                                                                                    
                                                                                                    
                                                                                                    
                                                                                                    
                                                                                                    
                                                                                                    
                                                                                                    
                                                                                                    
                                                                                                    
                                                                                                    
                                                                                                    
                                                                                                    
                                                                                                    
                                                                                                    
                           
<?xpacket end="w"?></metadata>
<style type="text/css">
	.st0{fill:#276092;}
	.st1{fill:#FF4338;}
</style>
<path id="XMLID_119_" class="st0" d="M203.5,338.8c-0.2-0.1-0.4-0.2-0.6-0.2c-0.2,0-0.4,0.1-0.6,0.2l-30.7,17.6l2.7-7.2l28.8-16.5
	l32.2,18.7v5.6L203.5,338.8z"/>
<path id="XMLID_118_" class="st0" d="M170.4,393.6l0.1-33.8l32.6-18.7l5,3.1L176,362.6c-0.4,0.2-0.6,0.6-0.6,1.1v35.7L170.4,393.6z"
	/>
<path id="XMLID_117_" class="st0" d="M177.7,401.7l0.2-37.4l5-2.9v37c0,0.4,0.2,0.8,0.6,1.1l31,17.7l-7.6,1.6L177.7,401.7z"/>
<path id="XMLID_116_" class="st0" d="M185.3,397.8v-6.2l32.1,18.7c0.2,0.1,0.4,0.2,0.6,0.2c0.2,0,0.4-0.1,0.6-0.2l30.9-18.1l-2.6,8
	l-29,16.2L185.3,397.8z"/>
<path id="XMLID_115_" class="st1" d="M212.8,404.8l32-18.2c0.4-0.2,0.6-0.6,0.6-1.1v-35.9l5.2,5.7l-0.1,33.7L218,407.8L212.8,404.8z
	"/>
<path id="XMLID_114_" class="st0" d="M237.7,350.6c0-0.4-0.2-0.8-0.6-1.1l-30.9-17.7l8.1-1.8l28.8,17.2l-0.2,37.6l-5.2,2.9V350.6z"
	/>
<path id="XMLID_113_" class="st0" d="M237.7,350.6c0-0.4-0.2-0.8-0.6-1.1l-30.9-17.7l8.1-1.8l28.8,17.2l-0.2,37.6l-5.2,2.9V350.6z"
	/>
<g id="XMLID_18_">
	<path id="XMLID_19_" class="st0" d="M268.8,440.2c-0.1,9.2-5.7,18.3-18.1,18.3c-12.4,0-18.2-8.9-18.2-18.2c0-9.3,6-18.7,18.2-18.7
		C262.8,421.6,268.9,430.9,268.8,440.2z M239,440.3c0.2,5.8,3.3,12,11.6,12s11.5-6.3,11.6-12.1c0.1-6-3.2-12.6-11.6-12.6
		S238.8,434.4,239,440.3z"/>
	<path id="XMLID_22_" class="st0" d="M304.5,432L293,447.4h-1.3L280.4,432v25.7h-6.7v-35.4h7.7l11.1,15.2l11.1-15.2h7.6v35.4h-6.7
		V432z"/>
	<path id="XMLID_24_" class="st0" d="M340.7,422.2h6.7v35.4h-4.1v0.1l-18.6-23.9v23.9H318v-35.4h5.4l17.3,21.9V422.2z"/>
	<path id="XMLID_26_" class="st0" d="M353.6,457.7v-35.4h6.6v35.4H353.6z"/>
	<path id="XMLID_28_" class="st0" d="M398.5,422.3v20.3c0,10.5-6.4,15.8-15.3,15.8c-8.5,0-15.7-5.2-15.7-15.8v-20.3h6.6v20.3
		c0,6.4,3.6,9.8,9.2,9.8c5.5,0,8.6-3.7,8.6-9.8v-20.3H398.5z"/>
	<path id="XMLID_30_" class="st0" d="M435.9,432l-11.5,15.4h-1.3L411.8,432v25.7h-6.7v-35.4h7.7l11.1,15.2l11.1-15.2h7.6v35.4h-6.7
		V432z"/>
</g>
</svg>
